<svg xmlns="http://www.w3.org/2000/svg" xmlns:xlink="http://www.w3.org/1999/xlink" version="1.1" id="Layer_1" x="0px" y="0px" width="100px" height="100px" viewBox="0 0 100 100" enable-background="new 0 0 100 100" xml:space="preserve">
<path fill="#000000" d="M25.069,45.08c0,0-1.459-1.251-2.892-1.642c-0.478-0.13-6.927,2.753-7.111,2.753  c-0.186,0-2.37,0.924-3.335,0.741c-0.91-0.173-2.07-0.838-3.149-1.664c-0.296-0.227-2.408-0.553-2.223-1.945  c0.185-1.393,0.556-1.474,2.037-2.267c1.483-0.793,2.779-3.386,6.484-4.683c3.706-1.297,4.075-6.484,30.752-6.484  c0,0,0.186-0.741,2.409-1.482c2.222-0.741,5.002,2.779,5.187,3.891c0.186,1.112,0.371,3.334,0,3.705s-3.706,1.846-5.372,1.757  c-1.668-0.089-7.045,0.482-6.299,1.948c0.687,1.349,1.667,1.349,1.667,1.349l7.039,2.912l7.596,3.244l9.264,2.128  c0,0,18.339-9.344,24.823-8.284c6.483,1.06-6.854,0.874-17.043,13.473c0,0,1.852,5.37,2.964,7.594c0,0-2.408,0.012-3.705-0.74  c-1.138-0.661-6.299-6.483-6.483-7.225c-0.186-0.742-2.39-0.069-5.558,1.111c-2.268,0.844-8.337,0-8.893-0.186  c-0.311-0.104-3.564-0.207-7.152-0.471c-2.841-0.21-5.89-0.521-7.854-1.012c0,0-10.744,8.894-12.413,8.521  c-1.667-0.369,5.187-10.744,5.187-10.744L25.069,45.08z"/>
<path fill="#000000" d="M57.858,47.524c0,0,1.668-2.036,2.594-1.992s2.459,3.154,2.636,3.194"/>
<path fill="#000000" d="M46.075,54.508c0,0,10.166,3.65,11.783,3.657c1.618,0.005-5.033-3.28-5.033-3.28"/>
</svg>