<?xml version="1.0" encoding="utf-8"?>
<!-- Generator: Adobe Illustrator 16.0.0, SVG Export Plug-In . SVG Version: 6.00 Build 0)  -->
<!DOCTYPE svg PUBLIC "-//W3C//DTD SVG 1.1//EN" "http://www.w3.org/Graphics/SVG/1.1/DTD/svg11.dtd">
<svg version="1.1" id="Layer_1" xmlns="http://www.w3.org/2000/svg" xmlns:xlink="http://www.w3.org/1999/xlink" x="0px" y="0px"
	 width="68.191px" height="100px" viewBox="0 0 68.191 100" enable-background="new 0 0 68.191 100" xml:space="preserve">
<g>
	<path fill="#010101" d="M29.421,59.16c-4.724,26.075,5.842,36.644,12.026,40.709c0.978,0.643,4.746-1.233,4.838-2.353
		C30.953,84.646,29.908,75.931,29.421,59.16z"/>
	<path fill="#010101" d="M28.917,57.705c8.686-4.976,11.889-16.434,3.259-23.373C19.153,23.853,23.163,9.51,27.401,0
		C-4.907,15.434-6.854,52.02,12.211,58.81c4.415,1.575,8.546,1.654,12.138,0.736c-4.33-5.444-8.064-13.82-9.208-26.824
		C18.593,44.032,21.277,51.409,28.917,57.705z"/>
	<path fill="#010101" d="M66.335,32.81c-2.896,6.868-8.432,15.983-20.279,14.306c-7.849-1.12-12.27,6.158-10.623,13.133
		c7.029,0.917,12.197-1.289,19.799-5.023c-7.355,5.766-13.563,7.91-18.526,8.317c1.283,2.32,3.347,4.443,6.324,5.979
		C55.909,76.164,74.076,57.246,66.335,32.81z"/>
</g>
</svg>
