<?xml version="1.0" encoding="utf-8"?>
<!-- Generator: Adobe Illustrator 19.0.0, SVG Export Plug-In . SVG Version: 6.00 Build 0)  -->
<!DOCTYPE svg PUBLIC "-//W3C//DTD SVG 1.1//EN" "http://www.w3.org/Graphics/SVG/1.1/DTD/svg11.dtd">
<svg version="1.1" xmlns="http://www.w3.org/2000/svg" xmlns:xlink="http://www.w3.org/1999/xlink" x="0px" y="0px" width="1240px"
	 height="320px" viewBox="0 0 1240 320" style="enable-background:new 0 0 1240 320;" xml:space="preserve">
<style type="text/css">
	.st0{fill:#333333;}
</style>
<g id="Layer_1">
</g>
<g id="Text">
	<g id="XMLID_4_">
		<g id="XMLID_2_">
			<path id="XMLID_110_" class="st0" d="M145.579,247.601V42.043h17.566v189.532h99.542v16.025H145.579z"/>
			<path id="XMLID_112_" class="st0" d="M281.799,144.976c0-60.095,39.447-106.323,99.851-106.323
				c60.095,0,99.851,46.228,99.851,106.323s-39.755,106.323-99.851,106.323C321.247,251.299,281.799,205.071,281.799,144.976z
				 M463.01,144.976c0-52.391-32.051-90.297-81.36-90.297c-49.926,0-81.36,37.906-81.36,90.297c0,51.774,31.435,90.297,81.36,90.297
				C430.959,235.273,463.01,196.75,463.01,144.976z"/>
			<path id="XMLID_115_" class="st0" d="M511.393,227.877l9.554-12.019c9.554,12.019,27.12,21.881,48.076,21.881
				c24.963,0,39.756-12.944,39.756-30.202c0-40.68-93.995-17.875-93.995-71.19c0-22.806,19.415-41.296,53.007-41.296
				c25.579,0,42.529,9.862,53.315,21.881l-8.937,11.403c-8.63-11.711-24.655-19.724-44.379-19.724
				c-23.113,0-37.29,11.71-37.29,27.12c0,37.29,93.996,14.485,93.996,71.807c0,24.038-18.491,43.762-55.781,43.762
				C544.677,251.299,526.186,244.21,511.393,227.877z"/>
		</g>
		<g id="XMLID_1_">
			<path id="XMLID_31_" class="st0" d="M683.35,82.441V39.613h13.677c13.291,0,21.639,9.696,21.639,21.446
				c0,11.878-8.348,21.381-21.639,21.381H683.35z M714.812,61.06c0-10.017-6.421-18.107-17.786-18.107H687.01v36.15h10.017
				C708.327,79.102,714.812,71.076,714.812,61.06z"/>
			<path id="XMLID_34_" class="st0" d="M756.288,82.441l-4.237-10.53h-22.666l-4.237,10.53h-4.238l17.529-42.828h4.559
				l17.529,42.828H756.288z M740.686,43.53l-10.081,25.042h20.227L740.686,43.53z"/>
			<path id="XMLID_37_" class="st0" d="M773.302,82.441V42.952h-13.998v-3.339h31.72v3.339h-13.998v39.489H773.302z"/>
			<path id="XMLID_39_" class="st0" d="M825.181,82.441l-4.237-10.53h-22.666l-4.237,10.53h-4.238l17.529-42.828h4.559
				l17.529,42.828H825.181z M809.578,43.53l-10.081,25.042h20.227L809.578,43.53z"/>
			<path id="XMLID_42_" class="st0" d="M883.349,82.441l-4.237-10.53h-22.666l-4.237,10.53h-4.238l17.529-42.828h4.559
				l17.529,42.828H883.349z M867.746,43.53l-10.081,25.042h20.227L867.746,43.53z"/>
			<path id="XMLID_45_" class="st0" d="M924.504,82.441l-26.968-36.792v36.792h-3.66V39.613h3.725l26.839,36.278V39.613h3.66v42.828
				H924.504z"/>
			<path id="XMLID_47_" class="st0" d="M969.767,82.441l-4.237-10.53h-22.666l-4.237,10.53h-4.238l17.529-42.828h4.559
				l17.529,42.828H969.767z M954.164,43.53l-10.081,25.042h20.227L954.164,43.53z"/>
			<path id="XMLID_50_" class="st0" d="M980.294,82.441V39.613h3.66v39.489h20.739v3.339H980.294z"/>
			<path id="XMLID_52_" class="st0" d="M1017.47,82.441V64.142l-17.016-24.528h4.431l14.447,21.061l14.446-21.061h4.431
				l-17.015,24.528v18.299H1017.47z"/>
			<path id="XMLID_54_" class="st0" d="M1040.839,76.405l2.376-2.761c2.761,3.21,7.256,6.228,13.355,6.228
				c8.797,0,11.301-4.88,11.301-8.54c0-12.585-25.684-6.036-25.684-20.997c0-6.999,6.293-11.429,14.062-11.429
				c6.422,0,11.173,2.247,14.512,6.036l-2.439,2.697c-3.082-3.724-7.449-5.394-12.265-5.394c-5.714,0-10.017,3.274-10.017,7.897
				c0,10.98,25.684,4.944,25.684,20.933c0,5.521-3.66,12.135-15.217,12.135C1049.443,83.211,1044.114,80.386,1040.839,76.405z"/>
			<path id="XMLID_56_" class="st0" d="M1080.518,82.441V39.613h3.66v42.828H1080.518z"/>
			<path id="XMLID_58_" class="st0" d="M1092.46,76.405l2.375-2.761c2.762,3.21,7.256,6.228,13.355,6.228
				c8.797,0,11.301-4.88,11.301-8.54c0-12.585-25.684-6.036-25.684-20.997c0-6.999,6.293-11.429,14.062-11.429
				c6.42,0,11.172,2.247,14.511,6.036l-2.44,2.697c-3.082-3.724-7.447-5.394-12.264-5.394c-5.715,0-10.017,3.274-10.017,7.897
				c0,10.98,25.684,4.944,25.684,20.933c0,5.521-3.659,12.135-15.218,12.135C1101.063,83.211,1095.734,80.386,1092.46,76.405z"/>
			<path id="XMLID_60_" class="st0" d="M719.692,164.942v-37.819l-15.604,37.819h-1.412l-15.667-37.819v37.819h-3.66v-42.827h5.458
				l14.575,35.314l14.512-35.314h5.521v42.827H719.692z"/>
			<path id="XMLID_62_" class="st0" d="M765.085,164.942l-4.238-10.53h-22.666l-4.237,10.53h-4.238l17.529-42.827h4.559
				l17.529,42.827H765.085z M749.481,126.032l-10.08,25.042h20.226L749.481,126.032z"/>
			<path id="XMLID_65_" class="st0" d="M775.61,164.942v-42.827h16.053c8.219,0,12.906,5.778,12.906,12.521
				s-4.752,12.521-12.906,12.521h-12.393v17.786H775.61z M800.716,134.636c0-5.394-3.788-9.182-9.438-9.182h-12.007v18.363h12.007
				C796.928,143.817,800.716,140.029,800.716,134.636z"/>
			<path id="XMLID_68_" class="st0" d="M812.271,164.942v-42.827h16.053c8.219,0,12.905,5.778,12.905,12.521
				s-4.751,12.521-12.905,12.521h-12.393v17.786H812.271z M837.378,134.636c0-5.394-3.789-9.182-9.439-9.182h-12.007v18.363h12.007
				C833.589,143.817,837.378,140.029,837.378,134.636z"/>
			<path id="XMLID_71_" class="st0" d="M848.933,164.942v-42.827h3.66v42.827H848.933z"/>
			<path id="XMLID_73_" class="st0" d="M893.877,164.942l-26.968-36.792v36.792h-3.66v-42.827h3.725l26.839,36.278v-36.278h3.66
				v42.827H893.877z"/>
			<path id="XMLID_75_" class="st0" d="M906.522,143.561c0-13.227,9.696-22.152,21.703-22.152c7.062,0,12.199,2.825,16.116,7.32
				l-2.761,1.99c-3.018-3.596-7.897-5.971-13.355-5.971c-10.081,0-17.85,7.641-17.85,18.813c0,11.044,7.769,18.878,17.85,18.878
				c5.715,0,10.209-2.825,12.585-5.201v-10.273H924.63v-3.274h19.841v14.96c-3.788,4.238-9.503,7.127-16.245,7.127
				C916.219,165.777,906.522,156.788,906.522,143.561z"/>
			<path id="XMLID_77_" class="st0" d="M998.722,164.942c-1.477-1.284-3.467-3.146-5.458-5.137
				c-3.082,3.467-7.127,5.907-12.585,5.907c-7.062,0-12.906-3.981-12.906-11.686c0-6.806,4.56-10.209,9.567-12.97
				c-2.118-3.339-3.531-6.742-3.531-9.824c0-5.65,4.559-9.76,10.209-9.76c5.266,0,8.989,2.89,8.989,8.091
				c0,6.421-5.586,9.246-11.107,12.199c1.861,2.633,3.98,5.009,5.521,6.742c1.99,2.247,3.853,4.366,5.715,6.292
				c2.568-3.853,4.174-8.09,4.88-10.402l3.082,1.284c-1.349,3.403-3.082,7.705-5.65,11.429c2.504,2.568,5.137,5.008,8.282,7.833
				H998.722z M991.081,157.559c-2.633-2.697-5.137-5.33-6.421-6.871c-1.862-2.183-3.917-4.623-5.715-7.191
				c-4.109,2.375-7.448,5.265-7.448,10.337c0,5.843,4.494,8.925,9.438,8.925C985.109,162.759,988.448,160.576,991.081,157.559z
				 M980.358,139.451c4.879-2.568,9.31-4.944,9.31-9.76c0-3.531-2.439-5.394-5.586-5.394c-3.66,0-6.678,2.89-6.678,6.999
				C977.404,133.801,978.624,136.69,980.358,139.451z"/>
			<path id="XMLID_81_" class="st0" d="M696.513,247.444l-17.529-42.828h4.238l15.538,38.718l15.603-38.718h4.238l-17.529,42.828
				H696.513z"/>
			<path id="XMLID_83_" class="st0" d="M724.89,247.444v-42.828h3.66v42.828H724.89z"/>
			<path id="XMLID_85_" class="st0" d="M736.831,241.408l2.375-2.761c2.762,3.21,7.256,6.228,13.355,6.228
				c8.797,0,11.301-4.88,11.301-8.54c0-12.585-25.684-6.036-25.684-20.997c0-6.999,6.293-11.429,14.062-11.429
				c6.42,0,11.172,2.247,14.511,6.036l-2.44,2.697c-3.082-3.724-7.447-5.394-12.264-5.394c-5.715,0-10.017,3.274-10.017,7.897
				c0,10.98,25.684,4.944,25.684,20.933c0,5.521-3.659,12.135-15.218,12.135C745.435,248.214,740.105,245.389,736.831,241.408z"/>
			<path id="XMLID_87_" class="st0" d="M776.509,231.006v-26.39h3.725v26.326c0,8.668,4.559,13.933,12.97,13.933
				c8.476,0,12.971-5.265,12.971-13.933v-26.326h3.724v26.39c0,10.594-5.65,17.208-16.694,17.208
				C782.224,248.214,776.509,241.537,776.509,231.006z"/>
			<path id="XMLID_89_" class="st0" d="M850.089,247.444l-4.237-10.53h-22.666l-4.237,10.53h-4.238l17.529-42.828h4.559
				l17.529,42.828H850.089z M834.486,208.533l-10.081,25.042h20.227L834.486,208.533z"/>
			<path id="XMLID_92_" class="st0" d="M860.616,247.444v-42.828h3.66v39.489h20.739v3.339H860.616z"/>
			<path id="XMLID_94_" class="st0" d="M892.976,247.444v-42.828h3.66v42.828H892.976z"/>
			<path id="XMLID_96_" class="st0" d="M905.173,247.444v-3.21l25.812-36.278h-25.812v-3.339h30.436v3.146l-25.812,36.342h26.262
				v3.339H905.173z"/>
			<path id="XMLID_98_" class="st0" d="M975.608,247.444l-4.238-10.53h-22.666l-4.237,10.53h-4.238l17.529-42.828h4.559
				l17.529,42.828H975.608z M960.005,208.533l-10.08,25.042h20.226L960.005,208.533z"/>
			<path id="XMLID_101_" class="st0" d="M992.621,247.444v-39.489h-13.998v-3.339h31.72v3.339h-13.998v39.489H992.621z"/>
			<path id="XMLID_103_" class="st0" d="M1017.917,247.444v-42.828h3.66v42.828H1017.917z"/>
			<path id="XMLID_105_" class="st0" d="M1030.628,226.062c0-12.521,8.219-22.152,20.805-22.152
				c12.521,0,20.803,9.631,20.803,22.152c0,12.521-8.282,22.152-20.803,22.152C1038.847,248.214,1030.628,238.583,1030.628,226.062z
				 M1068.384,226.062c0-10.916-6.678-18.813-16.951-18.813c-10.402,0-16.951,7.897-16.951,18.813
				c0,10.787,6.549,18.813,16.951,18.813C1061.706,244.875,1068.384,236.85,1068.384,226.062z"/>
			<path id="XMLID_108_" class="st0" d="M1111.913,247.444l-26.968-36.792v36.792h-3.66v-42.828h3.725l26.839,36.278v-36.278h3.66
				v42.828H1111.913z"/>
		</g>
	</g>
	<g id="XMLID_30_">
	</g>
	<g id="XMLID_117_">
	</g>
	<g id="XMLID_118_">
	</g>
	<g id="XMLID_119_">
	</g>
	<g id="XMLID_120_">
	</g>
	<g id="XMLID_121_">
	</g>
	<g id="XMLID_122_">
	</g>
	<g id="XMLID_123_">
	</g>
	<g id="XMLID_124_">
	</g>
	<g id="XMLID_125_">
	</g>
	<g id="XMLID_126_">
	</g>
	<g id="XMLID_127_">
	</g>
	<g id="XMLID_128_">
	</g>
	<g id="XMLID_129_">
	</g>
	<g id="XMLID_130_">
	</g>
</g>
</svg>
