<svg xmlns="http://www.w3.org/2000/svg" xmlns:xlink="http://www.w3.org/1999/xlink" version="1.1" x="0px" y="0px" width="100px" height="100px" viewBox="0 0 100 100" enable-background="new 0 0 100 100" xml:space="preserve">
<g id="Layer_1">
</g>
<g id="Layer_2">
	<g>
		<g>
			<path d="M67.572,28.296c-0.622,0-1.231,0.041-1.832,0.109c-2.423-8.417-10.163-14.581-19.358-14.581     c-11.132,0-20.156,9.024-20.156,20.156c0,0.933,0.085,1.841,0.208,2.74C20.467,37.619,15.89,42.753,15.89,48.97     c0,6.852,5.553,12.403,12.402,12.403h39.28c9.134,0,16.538-7.405,16.538-16.538S76.706,28.296,67.572,28.296"/>
		</g>
	</g>
	<rect x="17.966" y="70.454" transform="matrix(0.5879 -0.8089 0.8089 0.5879 -48.1236 50.0613)" width="14.213" height="3.617"/>
	<rect x="40.723" y="71.381" transform="matrix(0.5879 -0.8089 0.8089 0.5879 -39.0167 69.7937)" width="16.54" height="3.619"/>
	<rect x="51.248" y="73.56" transform="matrix(0.5877 -0.8091 0.8091 0.5877 -35.3743 81.3179)" width="21.709" height="3.616"/>
	<rect x="32.994" y="69.685" transform="matrix(-0.809 -0.5878 0.5878 -0.809 16.9812 161.9439)" width="3.617" height="17.056"/>
	<rect x="69.87" y="77.944" transform="matrix(0.5879 -0.8089 0.8089 0.5879 -34.4441 91.8932)" width="6.204" height="3.619"/>
</g>
</svg>